<?xml version="1.0" encoding="UTF-8" standalone="no"?>
<svg
   xmlns:dc="http://purl.org/dc/elements/1.1/"
   xmlns:cc="http://creativecommons.org/ns#"
   xmlns:rdf="http://www.w3.org/1999/02/22-rdf-syntax-ns#"
   xmlns:svg="http://www.w3.org/2000/svg"
   xmlns="http://www.w3.org/2000/svg"
   xmlns:sodipodi="http://sodipodi.sourceforge.net/DTD/sodipodi-0.dtd"
   xmlns:inkscape="http://www.inkscape.org/namespaces/inkscape"
   id="svg_root"
   viewBox="0 0 300 300"
   version="1.1"
   sodipodi:docname="ada_ARG_logo.svg"
   inkscape:version="0.92.5 (2060ec1f9f, 2020-04-08)">
  <metadata
     id="metadata1133">
    <rdf:RDF>
      <cc:Work
         rdf:about="">
        <dc:format>image/svg+xml</dc:format>
        <dc:type
           rdf:resource="http://purl.org/dc/dcmitype/StillImage" />
      </cc:Work>
    </rdf:RDF>
  </metadata>
  <defs
     id="defs1131" />
  <sodipodi:namedview
     pagecolor="#ffffff"
     bordercolor="#666666"
     borderopacity="1"
     objecttolerance="10"
     gridtolerance="10"
     guidetolerance="10"
     inkscape:pageopacity="0"
     inkscape:pageshadow="2"
     inkscape:window-width="1098"
     inkscape:window-height="1168"
     id="namedview1129"
     showgrid="false"
     inkscape:zoom="1.5733333"
     inkscape:cx="115.38281"
     inkscape:cy="77.781393"
     inkscape:window-x="822"
     inkscape:window-y="0"
     inkscape:window-maximized="0"
     inkscape:current-layer="svg_subtext" />
  <rect
     id="svg_frame"
     width="300"
     height="300"
     style="fill:none;stroke-width:10"
     stroke="#000000" />
  <!-- <circle id="svg_circle_frame" cx="150" cy="150" r="148" style="fill:none;stroke-width:5" stroke="black"/> -->
  <g
     transform="translate(8, 40)"
     id="g1123">
    <g
       transform="matrix(1.3333333,0,0,-1.3333333,0,199.99999)"
       id="g10">
      <g
         transform="scale(0.095)"
         id="g1120">
        <path
           id="svg_logo"
           fill="#000000"
           style="fill-opacity:1;fill-rule:nonzero;stroke:none;stroke-width:0.79978472"
           d="m 1735.94,608.49687 c 0,38.89593 40.941,53.21687 107.491,60.38695 55.2652,6.13914 99.2853,15.35507 127.9496,33.7789 v -49.13077 c 0,-58.64022 -49.3706,-87.16455 -115.2809,-93.67799 -26.8888,2.49933 -55.0253,4.84269 -84.2414,6.98213 -22.7299,8.66966 -35.9183,23.40009 -35.9183,41.66078 z M 461.48704,591.09515 h 283.55808 l 23.26574,-68.80948 C 646.26531,500.07325 524.76681,470.81552 407.55436,433.93505 Z M 602.76101,1008.7364 702.04709,716.99567 H 503.45974 Z M 1233.3232,862.35414 c 74.732,0 135.1237,-67.56661 135.1237,-151.49682 0,-59.35602 -31.7914,-110.48307 -77.6991,-134.22627 -34.5746,-1.15649 -69.5972,-2.74967 -104.9637,-4.81151 -51.1783,20.68164 -87.5764,73.93291 -87.5764,139.03778 0,85.98246 60.3917,151.49682 135.1155,151.49682 z m 864.1035,-333.2423 c -0.072,1.93708 -0.1439,3.85896 -0.1439,5.67047 v 274.34536 c 0,41.96311 -16.3717,180.15792 -230.3141,180.15792 -138.1948,0 -234.4248,-74.7271 -247.7333,-175.0441 h 135.1316 c 12.2848,45.04468 67.5659,66.5389 115.6809,66.5389 60.3838,0 96.2061,-22.52513 96.2061,-50.15851 0,-42.98843 -62.4392,-53.23607 -150.4715,-61.42107 -116.6886,-10.23163 -215.9899,-40.94257 -215.9899,-159.68821 0,-11.79363 1.1837,-22.90024 3.2552,-33.4598 -32.3513,1.17169 -65.5504,2.03066 -99.4852,2.53052 V 1210.3941 H 1368.4469 V 925.81466 c -40.941,38.90154 -94.1826,61.42347 -155.5981,61.42347 -137.1711,0 -250.79646,-118.73604 -250.79646,-275.36588 0,-58.3403 16.0277,-111.482 43.24426,-155.14225 -33.88676,-3.7182 -67.91766,-7.96666 -102.02046,-12.74697 L 688.73788,1159.2078 H 517.79029 L 245.16046,376.71605 C 165.53549,345.41168 88.946415,310.13957 16.762722,270.71018 366.24067,423.18755 1228.0367,629.60079 2203.4541,503.15082 c -4.6546,5.16981 -42.4765,15.02716 -106.0274,25.96102" />
      </g>
    </g>
  </g>
  <g
     id="svg_subtext"
     transform="matrix(0.60043727,0,0,0.60043727,35.877777,234.5588)"
     style="fill:#000000">
    <path
       d="m 42,-13 c 0,-5 -2,-9 -7,-11 6,-2 10,-6 10,-12 0,-9 -6,-12 -13,-13 -3,-1 -5,-1 -7,-1 H 6 V 0 h 10 v -20 h 6 c 1,0 3,0 4,0 4,0 6,4 7,9 0,5 1,8 2,11 H 46 C 44,-3 43,-6 42,-13 Z M 16,-27 v -15 h 8 c 1,0 3,0 4,0 4,1 6,3 6,7 0,5 -3,7 -7,7 -1,1 -2,1 -4,1 z M 74,0 h 10 c -1,-4 -1,-7 -1,-10 v -12 c 0,-2 0,-4 0,-6 -1,-7 -5,-11 -16,-11 -9,0 -16,5 -16,13 h 10 c 0,-4 2,-6 6,-6 4,0 6,2 6,4 0,2 0,3 0,4 v 1 h -2 c -14,0 -22,4 -22,13 0,7 6,11 13,11 3,0 7,-1 9,-3 l 2,-4 z m -8,-6 c -4,0 -6,-2 -6,-5 0,-5 5,-7 13,-6 v 3 c 0,5 -3,8 -7,8 z m 49,-33 c -4,0 -8,1 -10,2 l -3,5 v -6 H 92 v 52 h 10 V -5 l 3,4 c 1,1 5,2 9,2 9,0 18,-7 18,-21 0,-11 -6,-19 -17,-19 z m -3,33 c -5,0 -10,-3 -10,-12 v -2 c 0,-9 4,-12 10,-12 6,0 10,5 10,13 0,9 -5,13 -10,13 z m 49,-33 c -4,0 -8,1 -10,2 l -3,5 v -6 h -10 v 52 h 10 V -5 l 3,4 c 2,1 6,2 9,2 10,0 18,-7 18,-21 0,-11 -6,-19 -17,-19 z m -3,33 c -5,0 -10,-3 -10,-12 v -2 c 0,-9 5,-12 10,-12 6,0 10,5 10,13 0,9 -4,13 -10,13 z m 44,-33 c -13,0 -20,8 -20,20 0,11 7,20 20,20 13,0 20,-9 20,-20 0,-12 -7,-20 -20,-20 z m 0,33 c -6,0 -10,-5 -10,-13 0,-8 4,-13 10,-13 6,0 10,5 10,13 0,8 -4,13 -10,13 z m 46,-33 c -2,0 -5,1 -7,2 l -3,6 v -7 H 228 V 0 h 10 v -18 c 0,-10 4,-14 13,-13 v -8 c -1,0 -2,0 -3,0 z m 20,8 h 7 v -7 h -7 v -9 h -10 v 9 h -6 v 7 h 6 v 18 c 0,3 0,4 0,6 0,5 3,8 10,8 3,0 5,0 7,-1 v -6 c -6,0 -7,-1 -7,-4 0,-1 0,-2 0,-4 z m 48,11 c 0,-10 -6,-19 -18,-19 -12,0 -20,8 -20,20 0,13 9,20 19,20 9,0 16,-5 18,-13 h -10 c 0,4 -3,6 -8,6 -4,0 -8,-2 -9,-11 h 28 c 0,-1 0,-2 0,-3 z m -19,-12 c 5,0 8,3 9,9 h -17 c 1,-6 4,-9 8,-9 z m 61,-6 h -10 v 19 c 0,9 -3,13 -8,13 -5,0 -7,-3 -8,-7 0,-1 0,-4 0,-5 v -20 h -10 v 22 c 0,3 0,5 0,7 1,6 6,10 14,10 4,0 6,-1 9,-3 l 3,-4 v 6 h 10 z m 29,-1 c -3,0 -5,1 -7,2 l -3,6 v -7 H 367 V 0 h 10 v -18 c 0,-10 4,-14 12,-13 v -8 c 0,0 -1,0 -2,0 z"
       id="path1125"
       inkscape:connector-curvature="0" />
  </g>
  <g
     id="g1791"
     transform="matrix(1.210559,0,0,1.210559,-549.25879,123.331)">
    <g
       transform="matrix(0.496,0,0,0.496,484.35264,121.94297)"
       id="svg_subtext-3"
       style="fill:#000000">
      <path
         id="path1774"
         d="m 29,-25 v 7 h 11 c -1,7 -6,12 -12,12 -8,0 -14,-7 -14,-19 0,-11 6,-18 14,-18 7,0 10,3 12,9 v 1 h 10 v -1 C 49,-43 42,-51 28,-51 14,-51 4,-41 4,-25 4,-9 12,1 26,1 32,1 35,0 38,-3 l 3,-5 v 8 h 8 v -25 z m 48,-14 c -2,0 -5,1 -6,2 l -3,6 v -7 H 58 V 0 h 10 v -18 c 0,-10 4,-14 12,-13 v -8 c -1,0 -2,0 -3,0 z m 25,0 c -13,0 -20,8 -20,20 0,11 7,20 20,20 13,0 20,-9 20,-20 0,-12 -7,-20 -20,-20 z m 0,33 c -6,0 -10,-5 -10,-13 0,-8 4,-13 10,-13 6,0 9,5 9,13 0,8 -3,13 -9,13 z m 62,-32 h -10 v 19 c 0,9 -4,13 -9,13 -4,0 -7,-3 -7,-7 0,-1 0,-4 0,-5 v -20 h -10 v 22 c 0,3 0,5 0,7 1,6 6,10 13,10 4,0 7,-1 10,-3 l 3,-4 v 6 h 10 z m 31,-1 c -3,0 -7,1 -9,2 l -3,5 v -6 h -10 v 52 h 10 V -5 l 2,4 c 2,1 6,2 9,2 10,0 19,-7 19,-21 0,-11 -7,-19 -18,-19 z m -3,33 c -4,0 -9,-3 -9,-12 v -2 c 0,-9 4,-12 10,-12 6,0 9,5 9,13 0,9 -4,13 -10,13 z"
         inkscape:connector-curvature="0" />
    </g>
  </g>
</svg>
