<?xml version="1.0" encoding="UTF-8" standalone="no"?>
<svg
   xmlns:dc="http://purl.org/dc/elements/1.1/"
   xmlns:cc="http://creativecommons.org/ns#"
   xmlns:rdf="http://www.w3.org/1999/02/22-rdf-syntax-ns#"
   xmlns:svg="http://www.w3.org/2000/svg"
   xmlns="http://www.w3.org/2000/svg"
   xmlns:xlink="http://www.w3.org/1999/xlink"
   xmlns:sodipodi="http://sodipodi.sourceforge.net/DTD/sodipodi-0.dtd"
   xmlns:inkscape="http://www.inkscape.org/namespaces/inkscape"
   id="svg_root"
   viewBox="0 0 300 300"
   version="1.1"
   sodipodi:docname="ada_europe_logo_white_on_blue.svg"
   inkscape:version="0.92.5 (2060ec1f9f, 2020-04-08)">
  <metadata
     id="metadata17">
    <rdf:RDF>
      <cc:Work
         rdf:about="">
        <dc:format>image/svg+xml</dc:format>
        <dc:type
           rdf:resource="http://purl.org/dc/dcmitype/StillImage" />
        <dc:title></dc:title>
      </cc:Work>
    </rdf:RDF>
  </metadata>
  <defs
     id="defs15">
    <g
       id="s">
      <g
         id="c">
        <path
           transform="translate(0,-1)rotate(18)"
           d="M0,0v1h0.5z"
           id="t" />
        <use
           id="use103"
           transform="scale(-1,1)"
           xlink:href="#t" />
      </g>
      <g
         id="a">
        <use
           id="use106"
           transform="rotate(72)"
           xlink:href="#c" />
        <use
           id="use108"
           transform="rotate(144)"
           xlink:href="#c" />
      </g>
      <use
         id="use111"
         transform="scale(-1,1)"
         xlink:href="#a" />
    </g>
  </defs>
  <sodipodi:namedview
     pagecolor="#ffffff"
     bordercolor="#666666"
     borderopacity="1"
     objecttolerance="10"
     gridtolerance="10"
     guidetolerance="10"
     inkscape:pageopacity="0"
     inkscape:pageshadow="2"
     inkscape:window-width="1080"
     inkscape:window-height="1168"
     id="namedview13"
     showgrid="false"
     inkscape:zoom="1.5733333"
     inkscape:cx="144.78871"
     inkscape:cy="54.718071"
     inkscape:window-x="840"
     inkscape:window-y="0"
     inkscape:window-maximized="0"
     inkscape:current-layer="svg_root" />
  <rect
     style="fill:#003399;fill-opacity:1;stroke:none;stroke-width:3.04100871;stroke-linecap:round;stroke-linejoin:bevel;stroke-miterlimit:4;stroke-dasharray:12.16403424, 6.08201712, 3.04100857, 6.08201712;stroke-dashoffset:0;stroke-opacity:1;paint-order:normal"
     id="rect984"
     width="300"
     height="300"
     x="0"
     y="0" />
  <rect
     id="svg_frame"
     width="300"
     height="300"
     style="fill:none;stroke-width:10"
     stroke="none" />
  <!-- <circle id="svg_circle_frame" cx="150" cy="150" r="148" style="fill:none;stroke-width:5" stroke="black"/> -->
  <g
     id="g162"
     transform="matrix(0.48978279,0,0,0.48978279,-433.85037,-347.56511)">
    <g
       id="g135"
       transform="matrix(29.722814,0,0,29.722814,1192.0598,1018.7276)"
       style="fill:#ffcc00">
      <use
         id="use118"
         y="-6"
         xlink:href="#s"
         x="0"
         width="100%"
         height="100%" />
      <use
         id="use120"
         y="6"
         xlink:href="#s"
         x="0"
         width="100%"
         height="100%" />
      <g
         id="l">
        <use
           id="use122"
           x="-6"
           xlink:href="#s"
           y="0"
           width="100%"
           height="100%" />
        <use
           id="use124"
           transform="rotate(-144,-2.3441661,-2.1106967)"
           xlink:href="#s"
           x="0"
           y="0"
           width="100%"
           height="100%" />
        <use
           id="use126"
           transform="rotate(144,-2.1106967,-2.3441661)"
           xlink:href="#s"
           x="0"
           y="0"
           width="100%"
           height="100%" />
        <use
           id="use128"
           transform="rotate(72,-4.6626491,-2.0759451)"
           xlink:href="#s"
           x="0"
           y="0"
           width="100%"
           height="100%" />
        <use
           id="use130"
           transform="rotate(72,-5.0759451,0.53350333)"
           xlink:href="#s"
           x="0"
           y="0"
           width="100%"
           height="100%" />
      </g>
      <use
         id="use133"
         transform="scale(-1,1)"
         xlink:href="#l"
         x="0"
         y="0"
         width="100%"
         height="100%" />
    </g>
  </g>
  <use
     style="fill:#ffcc00"
     id="use126-3"
     transform="matrix(-7.9323983,5.7632247,-5.7632247,-7.9323983,388.9206,-65.448811)"
     xlink:href="#s"
     x="0"
     y="0"
     width="100%"
     height="100%" />
  <g
     transform="translate(8, 40)"
     id="g7"
     style="fill:#ffffff;fill-opacity:1;stroke:none;stroke-opacity:1;stroke-width:1.90000048;stroke-miterlimit:4;stroke-dasharray:none;stroke-dashoffset:0">
    <g
       transform="matrix(1.3333333,0,0,-1.3333333,0,199.99999)"
       id="g10"
       style="fill:#ffffff;fill-opacity:1;stroke:none;stroke-opacity:1;stroke-width:1.4250004;stroke-miterlimit:4;stroke-dasharray:none;stroke-dashoffset:0">
      <g
         transform="scale(0.095)"
         id="g4"
         style="fill:#ffffff;fill-opacity:1;stroke:none;stroke-opacity:1;stroke-width:15.00000416;stroke-miterlimit:4;stroke-dasharray:none;stroke-dashoffset:0">
        <path
           id="svg_logo"
           style="fill-opacity:1;fill-rule:nonzero;stroke:none;stroke-width:15.00000416;fill:#ffffff;stroke-opacity:1;stroke-miterlimit:4;stroke-dasharray:none;stroke-dashoffset:0"
           d="m 1735.94,608.49687 c 0,38.89593 40.941,53.21687 107.491,60.38695 55.2652,6.13914 99.2853,15.35507 127.9496,33.7789 v -49.13077 c 0,-58.64022 -49.3706,-87.16455 -115.2809,-93.67799 -26.8888,2.49933 -55.0253,4.84269 -84.2414,6.98213 -22.7299,8.66966 -35.9183,23.40009 -35.9183,41.66078 z M 461.48704,591.09515 h 283.55808 l 23.26574,-68.80948 C 646.26531,500.07325 524.76681,470.81552 407.55436,433.93505 Z M 602.76101,1008.7364 702.04709,716.99567 H 503.45974 Z M 1233.3232,862.35414 c 74.732,0 135.1237,-67.56661 135.1237,-151.49682 0,-59.35602 -31.7914,-110.48307 -77.6991,-134.22627 -34.5746,-1.15649 -69.5972,-2.74967 -104.9637,-4.81151 -51.1783,20.68164 -87.5764,73.93291 -87.5764,139.03778 0,85.98246 60.3917,151.49682 135.1155,151.49682 z m 864.1035,-333.2423 c -0.072,1.93708 -0.1439,3.85896 -0.1439,5.67047 v 274.34536 c 0,41.96311 -16.3717,180.15792 -230.3141,180.15792 -138.1948,0 -234.4248,-74.7271 -247.7333,-175.0441 h 135.1316 c 12.2848,45.04468 67.5659,66.5389 115.6809,66.5389 60.3838,0 96.2061,-22.52513 96.2061,-50.15851 0,-42.98843 -62.4392,-53.23607 -150.4715,-61.42107 -116.6886,-10.23163 -215.9899,-40.94257 -215.9899,-159.68821 0,-11.79363 1.1837,-22.90024 3.2552,-33.4598 -32.3513,1.17169 -65.5504,2.03066 -99.4852,2.53052 V 1210.3941 H 1368.4469 V 925.81466 c -40.941,38.90154 -94.1826,61.42347 -155.5981,61.42347 -137.1711,0 -250.79646,-118.73604 -250.79646,-275.36588 0,-58.3403 16.0277,-111.482 43.24426,-155.14225 -33.88676,-3.7182 -67.91766,-7.96666 -102.02046,-12.74697 L 688.73788,1159.2078 H 517.79029 L 245.16046,376.71605 C 165.53549,345.41168 88.946415,310.13957 16.762722,270.71018 366.24067,423.18755 1228.0367,629.60079 2203.4541,503.15082 c -4.6546,5.16981 -42.4765,15.02716 -106.0274,25.96102"
           fill="#000000" />
      </g>
    </g>
  </g>
  <g
     id="svg_subtext"
     fill="#000000"
     transform="translate(150, 215) scale(0.5) "
     style="fill:#ffffff;fill-opacity:1;stroke:none">
    <path
       d="M42-8L16-8L16-21L40-21L40-29L16-29L16-42L42-42L42-50L6-50L6 0L42 0ZM84-38L74-38L74-19C74-10 71-6 66-6C61-6 59-9 58-13C58-14 58-17 58-18L58-38L48-38L48-16C48-13 48-11 49-9C49-3 54 1 62 1C66 1 69 0 71-2L74-6L74 0L84 0ZM113-39C111-39 108-38 106-37L103-31L103-38L93-38L93 0L103 0L103-18C103-28 107-32 116-31L116-39C115-39 114-39 113-39ZM138-39C125-39 118-31 118-19C118-8 125 1 138 1C150 1 158-8 158-19C158-31 150-39 138-39ZM138-6C132-6 128-11 128-19C128-27 132-32 138-32C144-32 147-27 147-19C147-11 144-6 138-6ZM187-39C183-39 179-38 177-37L174-32L174-38L164-38L164 14L174 14L174-5L176-1C178 0 182 1 185 1C195 1 204-6 204-20C204-31 197-39 187-39ZM184-6C179-6 174-9 174-18L174-20C174-29 178-32 184-32C190-32 194-27 194-19C194-10 189-6 184-6ZM245-20C245-30 239-39 227-39C215-39 208-31 208-19C208-6 216 1 226 1C235 1 243-4 245-12L235-12C234-8 231-6 227-6C222-6 218-8 218-17L245-17C245-18 245-19 245-20ZM227-32C231-32 234-29 235-23L218-23C219-29 222-32 227-32Z"
       id="path9"
       style="fill:#ffffff;fill-opacity:1;stroke:none" />
  </g>
</svg>
