
    <svg id="svg_root" viewBox="0 0 300 300" xmlns="http://www.w3.org/2000/svg">
      <rect id="svg_frame" width="300" height="300" style="fill:none;stroke-width:10" stroke="none"></rect>
      <!-- <circle id="svg_circle_frame" cx="150" cy="150" r="148" style="fill:none;stroke-width:5" stroke="black"/> -->
      <g transform="translate(8, 40)">
        <g transform="matrix(1.3333333,0,0,-1.3333333,0,199.99999)" id="g10">
          <g transform="scale(0.095)">
            <path id="svg_logo" fill="#000000" style="fill-opacity:1;fill-rule:nonzero;stroke:none;stroke-width:0.79978472" d="m 1735.94,608.49687 c 0,38.89593 40.941,53.21687 107.491,60.38695 55.2652,6.13914 99.2853,15.35507 127.9496,33.7789 v -49.13077 c 0,-58.64022 -49.3706,-87.16455 -115.2809,-93.67799 -26.8888,2.49933 -55.0253,4.84269 -84.2414,6.98213 -22.7299,8.66966 -35.9183,23.40009 -35.9183,41.66078 z M 461.48704,591.09515 h 283.55808 l 23.26574,-68.80948 C 646.26531,500.07325 524.76681,470.81552 407.55436,433.93505 Z M 602.76101,1008.7364 702.04709,716.99567 H 503.45974 Z M 1233.3232,862.35414 c 74.732,0 135.1237,-67.56661 135.1237,-151.49682 0,-59.35602 -31.7914,-110.48307 -77.6991,-134.22627 -34.5746,-1.15649 -69.5972,-2.74967 -104.9637,-4.81151 -51.1783,20.68164 -87.5764,73.93291 -87.5764,139.03778 0,85.98246 60.3917,151.49682 135.1155,151.49682 z m 864.1035,-333.2423 c -0.072,1.93708 -0.1439,3.85896 -0.1439,5.67047 v 274.34536 c 0,41.96311 -16.3717,180.15792 -230.3141,180.15792 -138.1948,0 -234.4248,-74.7271 -247.7333,-175.0441 h 135.1316 c 12.2848,45.04468 67.5659,66.5389 115.6809,66.5389 60.3838,0 96.2061,-22.52513 96.2061,-50.15851 0,-42.98843 -62.4392,-53.23607 -150.4715,-61.42107 -116.6886,-10.23163 -215.9899,-40.94257 -215.9899,-159.68821 0,-11.79363 1.1837,-22.90024 3.2552,-33.4598 -32.3513,1.17169 -65.5504,2.03066 -99.4852,2.53052 V 1210.3941 H 1368.4469 V 925.81466 c -40.941,38.90154 -94.1826,61.42347 -155.5981,61.42347 -137.1711,0 -250.79646,-118.73604 -250.79646,-275.36588 0,-58.3403 16.0277,-111.482 43.24426,-155.14225 -33.88676,-3.7182 -67.91766,-7.96666 -102.02046,-12.74697 L 688.73788,1159.2078 H 517.79029 L 245.16046,376.71605 C 165.53549,345.41168 88.946415,310.13957 16.762722,270.71018 366.24067,423.18755 1228.0367,629.60079 2203.4541,503.15082 c -4.6546,5.16981 -42.4765,15.02716 -106.0274,25.96102"></path>
          </g>
        </g>
      </g>
      <g id="svg_subtext" fill="#000000" transform="translate(150, 215) scale(0.5) "><path d="M42-8L16-8L16-21L40-21L40-29L16-29L16-42L42-42L42-50L6-50L6 0L42 0ZM84-38L74-38L74-19C74-10 71-6 66-6C61-6 59-9 58-13C58-14 58-17 58-18L58-38L48-38L48-16C48-13 48-11 49-9C49-3 54 1 62 1C66 1 69 0 71-2L74-6L74 0L84 0ZM113-39C111-39 108-38 106-37L103-31L103-38L93-38L93 0L103 0L103-18C103-28 107-32 116-31L116-39C115-39 114-39 113-39ZM138-39C125-39 118-31 118-19C118-8 125 1 138 1C150 1 158-8 158-19C158-31 150-39 138-39ZM138-6C132-6 128-11 128-19C128-27 132-32 138-32C144-32 147-27 147-19C147-11 144-6 138-6ZM187-39C183-39 179-38 177-37L174-32L174-38L164-38L164 14L174 14L174-5L176-1C178 0 182 1 185 1C195 1 204-6 204-20C204-31 197-39 187-39ZM184-6C179-6 174-9 174-18L174-20C174-29 178-32 184-32C190-32 194-27 194-19C194-10 189-6 184-6ZM245-20C245-30 239-39 227-39C215-39 208-31 208-19C208-6 216 1 226 1C235 1 243-4 245-12L235-12C234-8 231-6 227-6C222-6 218-8 218-17L245-17C245-18 245-19 245-20ZM227-32C231-32 234-29 235-23L218-23C219-29 222-32 227-32Z"></path></g>
    </svg>
  