
    <svg id="svg_root" viewBox="0 0 300 300" xmlns="http://www.w3.org/2000/svg">
      <rect id="svg_frame" width="300" height="300" style="fill:none;stroke-width:10" stroke="none"></rect>
      <!-- <circle id="svg_circle_frame" cx="150" cy="150" r="148" style="fill:none;stroke-width:5" stroke="black"/> -->
      <g transform="translate(8, 40)">
        <g transform="matrix(1.3333333,0,0,-1.3333333,0,199.99999)" id="g10">
          <g transform="scale(0.095)">
            <path id="svg_logo" fill="#000000" style="fill-opacity:1;fill-rule:nonzero;stroke:none;stroke-width:0.79978472" d="m 1735.94,608.49687 c 0,38.89593 40.941,53.21687 107.491,60.38695 55.2652,6.13914 99.2853,15.35507 127.9496,33.7789 v -49.13077 c 0,-58.64022 -49.3706,-87.16455 -115.2809,-93.67799 -26.8888,2.49933 -55.0253,4.84269 -84.2414,6.98213 -22.7299,8.66966 -35.9183,23.40009 -35.9183,41.66078 z M 461.48704,591.09515 h 283.55808 l 23.26574,-68.80948 C 646.26531,500.07325 524.76681,470.81552 407.55436,433.93505 Z M 602.76101,1008.7364 702.04709,716.99567 H 503.45974 Z M 1233.3232,862.35414 c 74.732,0 135.1237,-67.56661 135.1237,-151.49682 0,-59.35602 -31.7914,-110.48307 -77.6991,-134.22627 -34.5746,-1.15649 -69.5972,-2.74967 -104.9637,-4.81151 -51.1783,20.68164 -87.5764,73.93291 -87.5764,139.03778 0,85.98246 60.3917,151.49682 135.1155,151.49682 z m 864.1035,-333.2423 c -0.072,1.93708 -0.1439,3.85896 -0.1439,5.67047 v 274.34536 c 0,41.96311 -16.3717,180.15792 -230.3141,180.15792 -138.1948,0 -234.4248,-74.7271 -247.7333,-175.0441 h 135.1316 c 12.2848,45.04468 67.5659,66.5389 115.6809,66.5389 60.3838,0 96.2061,-22.52513 96.2061,-50.15851 0,-42.98843 -62.4392,-53.23607 -150.4715,-61.42107 -116.6886,-10.23163 -215.9899,-40.94257 -215.9899,-159.68821 0,-11.79363 1.1837,-22.90024 3.2552,-33.4598 -32.3513,1.17169 -65.5504,2.03066 -99.4852,2.53052 V 1210.3941 H 1368.4469 V 925.81466 c -40.941,38.90154 -94.1826,61.42347 -155.5981,61.42347 -137.1711,0 -250.79646,-118.73604 -250.79646,-275.36588 0,-58.3403 16.0277,-111.482 43.24426,-155.14225 -33.88676,-3.7182 -67.91766,-7.96666 -102.02046,-12.74697 L 688.73788,1159.2078 H 517.79029 L 245.16046,376.71605 C 165.53549,345.41168 88.946415,310.13957 16.762722,270.71018 366.24067,423.18755 1228.0367,629.60079 2203.4541,503.15082 c -4.6546,5.16981 -42.4765,15.02716 -106.0274,25.96102"></path>
          </g>
        </g>
      </g>
      <g id="svg_subtext" fill="#000000" transform="translate(178, 215) scale(0.5) "><path d="M23-51C13-51 5-45 5-36C5-27 12-23 22-21C29-19 32-17 32-13C32-9 28-6 23-6C18-6 14-9 13-15L3-15C4-4 12 1 24 1C33 1 42-4 42-14C42-22 37-27 26-29C18-31 16-33 16-37C16-41 19-43 23-43C28-43 31-40 31-35L41-35C40-44 35-51 23-51ZM71-39C67-39 63-38 61-37L58-32L58-38L48-38L48 14L58 14L58-5L61-1C63 0 67 1 70 1C80 1 88-6 88-20C88-31 82-39 71-39ZM68-6C63-6 58-9 58-18L58-20C58-29 63-32 68-32C74-32 78-27 78-19C78-10 74-6 68-6ZM117 0L127 0C126-4 126-7 126-10L126-22C126-24 126-26 126-28C125-35 121-39 110-39C101-39 94-34 94-26L104-26C104-30 106-32 110-32C114-32 116-30 116-28C116-26 116-25 116-24L116-23L114-23C100-23 92-19 92-10C92-3 98 1 105 1C108 1 112 0 114-2L116-6ZM109-6C105-6 103-8 103-11C103-16 108-18 116-17L116-14C116-9 113-6 109-6ZM140-53C137-53 135-50 135-47C135-44 137-42 140-42C143-42 146-44 146-47C146-50 143-53 140-53ZM145 0L145-38L135-38L135 0ZM190-29C189-35 184-39 176-39C173-39 170-39 167-37L164-32L164-38L154-38L154 0L164 0L164-17C164-28 168-32 173-32C178-32 180-30 180-26C180-24 180-22 180-20L180 0L190 0L190-22C190-25 190-27 190-29Z"></path></g>
    </svg>
  