
    <svg id="svg_root" viewBox="0 0 300 300" xmlns="http://www.w3.org/2000/svg">
      <rect id="svg_frame" width="300" height="300" style="fill:none;stroke-width:10" stroke="none"></rect>
      <!-- <circle id="svg_circle_frame" cx="150" cy="150" r="148" style="fill:none;stroke-width:5" stroke="black"/> -->
      <g transform="translate(8, 40)">
        <g transform="matrix(1.3333333,0,0,-1.3333333,0,199.99999)" id="g10">
          <g transform="scale(0.095)">
            <path id="svg_logo" fill="#000000" style="fill-opacity:1;fill-rule:nonzero;stroke:none;stroke-width:0.79978472" d="m 1735.94,608.49687 c 0,38.89593 40.941,53.21687 107.491,60.38695 55.2652,6.13914 99.2853,15.35507 127.9496,33.7789 v -49.13077 c 0,-58.64022 -49.3706,-87.16455 -115.2809,-93.67799 -26.8888,2.49933 -55.0253,4.84269 -84.2414,6.98213 -22.7299,8.66966 -35.9183,23.40009 -35.9183,41.66078 z M 461.48704,591.09515 h 283.55808 l 23.26574,-68.80948 C 646.26531,500.07325 524.76681,470.81552 407.55436,433.93505 Z M 602.76101,1008.7364 702.04709,716.99567 H 503.45974 Z M 1233.3232,862.35414 c 74.732,0 135.1237,-67.56661 135.1237,-151.49682 0,-59.35602 -31.7914,-110.48307 -77.6991,-134.22627 -34.5746,-1.15649 -69.5972,-2.74967 -104.9637,-4.81151 -51.1783,20.68164 -87.5764,73.93291 -87.5764,139.03778 0,85.98246 60.3917,151.49682 135.1155,151.49682 z m 864.1035,-333.2423 c -0.072,1.93708 -0.1439,3.85896 -0.1439,5.67047 v 274.34536 c 0,41.96311 -16.3717,180.15792 -230.3141,180.15792 -138.1948,0 -234.4248,-74.7271 -247.7333,-175.0441 h 135.1316 c 12.2848,45.04468 67.5659,66.5389 115.6809,66.5389 60.3838,0 96.2061,-22.52513 96.2061,-50.15851 0,-42.98843 -62.4392,-53.23607 -150.4715,-61.42107 -116.6886,-10.23163 -215.9899,-40.94257 -215.9899,-159.68821 0,-11.79363 1.1837,-22.90024 3.2552,-33.4598 -32.3513,1.17169 -65.5504,2.03066 -99.4852,2.53052 V 1210.3941 H 1368.4469 V 925.81466 c -40.941,38.90154 -94.1826,61.42347 -155.5981,61.42347 -137.1711,0 -250.79646,-118.73604 -250.79646,-275.36588 0,-58.3403 16.0277,-111.482 43.24426,-155.14225 -33.88676,-3.7182 -67.91766,-7.96666 -102.02046,-12.74697 L 688.73788,1159.2078 H 517.79029 L 245.16046,376.71605 C 165.53549,345.41168 88.946415,310.13957 16.762722,270.71018 366.24067,423.18755 1228.0367,629.60079 2203.4541,503.15082 c -4.6546,5.16981 -42.4765,15.02716 -106.0274,25.96102"></path>
          </g>
        </g>
      </g>
      <g id="svg_subtext" fill="#000000" transform="translate(154, 215) scale(0.5) "><path d="M16 0L16-50L6-50L6 0ZM71 0L71-50L61-50L61-27C61-23 61-17 61-11L41-50L27-50L27 0L37 0L37-22C37-27 37-32 37-38L57 0ZM99-51C89-51 81-45 81-36C81-27 87-23 97-21C105-19 107-17 107-13C107-9 104-6 99-6C94-6 90-9 89-15L79-15C80-4 87 1 99 1C109 1 118-4 118-14C118-22 113-27 102-29C94-31 91-33 91-37C91-41 94-43 98-43C103-43 106-40 107-35L117-35C116-44 111-51 99-51ZM136 0L136-50L126-50L126 0ZM170-49C168-50 167-50 164-50L147-50L147 0L164 0C167 0 168 0 170-0C182-2 191-10 191-25C191-41 182-48 170-49ZM168-8C166-8 165-8 163-8L157-8L157-42L163-42C165-42 167-42 168-42C176-41 180-35 180-25C180-15 175-9 168-8ZM235-8L210-8L210-21L233-21L233-29L210-29L210-42L235-42L235-50L200-50L200 0L235 0Z"></path></g>
    </svg>
  